<svg xmlns="http://www.w3.org/2000/svg" width="256" height="256" viewBox="0 0 100 100"><rect width="100" height="100" rx="50" fill="#000000"></rect><path d="M28.47 25.71Q36.34 25.71 42.10 28.64Q47.86 31.58 50.93 37.03Q54.00 42.48 54.00 49.86L54.00 49.86Q54.00 57.25 50.93 62.66Q47.86 68.08 42.10 70.94Q36.34 73.81 28.47 73.81L28.47 73.81L13.50 73.81L13.50 25.71L28.47 25.71ZM28.47 68.63Q37.79 68.63 42.69 63.70Q47.59 58.76 47.59 49.86L47.59 49.86Q47.59 40.89 42.65 35.86Q37.72 30.82 28.47 30.82L28.47 30.82L19.78 30.82L19.78 68.63L28.47 68.63ZM80.15 25.71L86.50 25.71L86.50 61.25Q86.50 67.18 82.84 70.73Q79.19 74.29 73.18 74.29L73.18 74.29Q67.11 74.29 63.45 70.67Q59.80 67.04 59.80 60.76L59.80 60.76L66.08 60.76Q66.15 64.28 67.91 66.49Q69.67 68.70 73.18 68.70L73.18 68.70Q76.70 68.70 78.43 66.59Q80.15 64.49 80.15 61.25L80.15 61.25L80.15 25.71Z" fill="#fff"></path></svg>